<svg xmlns="http://www.w3.org/2000/svg" width="256" height="256" viewBox="0 0 100 100"><rect width="100" height="100" rx="20" fill="#601fce"></rect><path fill="#ffffff" d="M27.22 74.67Q22.86 74.67 19.74 72.39Q16.62 70.12 15.00 66.09Q13.37 62.06 13.37 56.86L13.37 56.86Q13.37 48.80 17.04 43.89Q20.72 38.98 27.35 38.98L27.35 38.98Q31.83 38.98 34.43 41.03Q37.03 43.08 38.14 45.55L38.14 45.55L38.66 45.55L38.66 25.33L46.59 25.33L46.59 74.15L38.66 74.15L38.66 67.84L38.14 67.84Q36.90 70.44 34.27 72.56Q31.64 74.67 27.22 74.67L27.22 74.67ZM30.01 68.30Q34.24 68.30 36.41 64.95Q38.59 61.60 38.59 56.86L38.59 56.86Q38.59 52.11 36.41 48.83Q34.24 45.55 30.01 45.55L30.01 45.55Q25.72 45.55 23.58 48.83Q21.43 52.11 21.43 56.86L21.43 56.86Q21.43 61.67 23.58 64.98Q25.72 68.30 30.01 68.30L30.01 68.30ZM55.23 74.15L55.23 25.79L63.16 25.79L63.16 45.42L63.62 45.42Q64.85 42.75 67.55 40.87Q70.25 38.98 74.15 38.98L74.15 38.98Q80.78 38.98 83.70 43.27Q86.63 47.56 86.63 53.22L86.63 53.22L86.63 74.15L78.76 74.15L78.76 54.45Q78.76 50.23 76.72 47.92Q74.67 45.61 70.96 45.61L70.96 45.61Q67.45 45.61 65.31 48.05Q63.16 50.49 63.16 54.45L63.16 54.45L63.16 74.15L55.23 74.15Z"></path></svg>